<svg aria-hidden="true" style="position:absolute;width:0;height:0" xmlns="http://www.w3.org/2000/svg" overflow="hidden"><defs><symbol id="icon-compass" viewBox="0 0 33 33"><path d="M29.906 19.078c0 7.404-6.002 13.406-13.406 13.406S3.094 26.482 3.094 19.078c0-6.528 4.666-11.959 10.844-13.156a3.094 3.094 0 115.125 0c6.178 1.196 10.845 6.628 10.845 13.156zM16.5 2.578a1.547 1.547 0 100 3.094 1.547 1.547 0 000-3.094zm1.031 5.208v2.527h-2.063V7.786c-5.59.504-9.998 5.191-10.286 10.842h3.067v1.998H5.263c.684 5.225 4.916 9.267 10.205 9.744v-2.526h2.063v2.526c5.267-.475 9.484-4.55 10.195-9.744H24.75v-2.063h3.069c-.256-5.68-4.678-10.27-10.288-10.777zM9.81 25.948l4.04-9.145 9.085-3.98-3.965 9.069-9.161 4.056zm8.051-8.052a2.062 2.062 0 10-2.917 2.916 2.062 2.062 0 002.917-2.916z"/></symbol><symbol id="icon-world" viewBox="0 0 33 33"><path d="M15.984 0C7.155 0 0 7.156 0 15.984s7.156 15.984 15.984 15.984 15.984-7.156 15.984-15.984S24.812 0 15.984 0zM29.88 15.469h-6.183c-.057-2.284-.463-4.466-1.184-6.464a16.863 16.863 0 003.853-2.266 13.856 13.856 0 013.515 8.73zM15.414 29.877c-1.714-1.427-3.152-3.28-4.203-5.433 1.35-.422 2.78-.653 4.258-.7v6.135l-.055-.002zm1.139-27.786c1.945 1.619 3.532 3.788 4.606 6.317a15.973 15.973 0 01-4.659.846V2.088l.054.003zm1.718.176c2.846.473 5.4 1.803 7.388 3.727a15.772 15.772 0 01-3.535 2.06c-.938-2.224-2.255-4.191-3.853-5.787zm-2.802-.179v7.166a15.96 15.96 0 01-4.659-.846c1.074-2.53 2.661-4.698 4.606-6.317l.054-.003zM9.844 8.055a15.81 15.81 0 01-3.534-2.06 13.88 13.88 0 017.388-3.727C12.1 3.863 10.784 5.83 9.844 8.055zm.577 1.305c1.59.552 3.285.873 5.048.927v5.182H9.303c.056-2.159.438-4.223 1.118-6.109zm5.048 7.14v6.213a16.927 16.927 0 00-4.681.793A19.371 19.371 0 019.303 16.5h6.166zm-1.771 13.202a13.866 13.866 0 01-6.75-3.147 15.7 15.7 0 013.288-1.753 17.866 17.866 0 003.462 4.901zm2.802.178v-6.135a15.96 15.96 0 014.258.7c-1.053 2.152-2.489 4.005-4.203 5.433l-.055.002zm5.233-5.078c1.173.453 2.27 1.05 3.288 1.753a13.85 13.85 0 01-6.75 3.147 17.872 17.872 0 003.462-4.901zm-.552-1.296a16.94 16.94 0 00-4.681-.793V16.5h6.166a19.392 19.392 0 01-1.485 7.006zM16.5 15.469v-5.182a16.958 16.958 0 005.048-.926c.679 1.886 1.061 3.95 1.118 6.109H16.5zM5.604 6.739a16.878 16.878 0 003.852 2.266c-.721 1.998-1.127 4.18-1.184 6.464H2.089a13.848 13.848 0 013.516-8.73zM2.088 16.5h6.183a20.35 20.35 0 001.55 7.36 16.724 16.724 0 00-3.649 1.991A13.886 13.886 0 012.087 16.5zm23.708 9.35a16.75 16.75 0 00-3.65-1.991 20.35 20.35 0 001.551-7.36h6.183a13.88 13.88 0 01-4.085 9.351z"/></symbol><symbol id="icon-heart" viewBox="0 0 33 33"><path d="M30.105 5.43c-3.742-3.708-9.727-3.786-13.603-.297-3.877-3.489-9.86-3.411-13.604.297a9.714 9.714 0 000 13.834l11.398 11.283a3.137 3.137 0 004.412 0l11.398-11.283a9.712 9.712 0 00-.001-13.834zm-1.469 12.378L17.238 29.091a1.045 1.045 0 01-1.47 0L4.37 17.808a7.676 7.676 0 010-10.922c2.933-2.903 7.648-3.005 10.734-.229l1.398 1.258 1.397-1.258c3.088-2.776 7.802-2.675 10.735.229a7.677 7.677 0 01.001 10.922zM9.542 7.735a.515.515 0 110 1.032h-.001c-1.85 0-3.351 1.5-3.351 3.351v.001a.516.516 0 11-1.032 0c0-2.419 1.96-4.38 4.379-4.382l.004-.001z"/></symbol><symbol id="icon-map2" viewBox="0 0 32 32"><path d="M21 6L11 2 0 6v24l11-4 10 4 11-4V2L21 6zm-9-1.446l8 3.2v19.692l-8-3.2V4.554zM2 7.401l8-2.909v19.744l-8 2.909V7.401zm28 17.198l-8 2.909V7.764l8-2.909v19.744z"/></symbol></defs></svg>