<svg aria-hidden="true" style="position: absolute; width: 0; height: 0; overflow: hidden;" version="1.1" xmlns="http://www.w3.org/2000/svg" xmlns:xlink="http://www.w3.org/1999/xlink">
<defs>
<symbol id="icon-compass" viewBox="0 0 33 33">
<title>compass</title>
<path d="M29.906 19.078c0 7.404-6.002 13.406-13.406 13.406s-13.406-6.002-13.406-13.406c0-6.528 4.666-11.959 10.844-13.156-0.335-0.494-0.531-1.090-0.531-1.734 0-1.709 1.385-3.094 3.094-3.094 1.708 0 3.094 1.385 3.094 3.094 0 0.642-0.196 1.239-0.532 1.734 6.178 1.196 10.845 6.628 10.845 13.156zM16.5 2.578c-0.855 0-1.547 0.693-1.547 1.547s0.692 1.547 1.547 1.547c0.854 0 1.547-0.693 1.547-1.547s-0.693-1.547-1.547-1.547zM17.531 7.786v2.527h-2.063v-2.527c-5.59 0.504-9.998 5.191-10.286 10.842h3.067v1.998h-2.986c0.684 5.225 4.916 9.267 10.205 9.744v-2.526h2.063v2.526c5.267-0.475 9.484-4.55 10.195-9.744h-2.976v-2.063h3.069c-0.256-5.68-4.678-10.27-10.288-10.777zM9.81 25.948l4.040-9.145 9.085-3.98-3.965 9.069-9.161 4.056zM17.861 17.896c-0.805-0.805-2.112-0.805-2.917 0s-0.805 2.111 0 2.916 2.112 0.805 2.917 0c0.805-0.805 0.805-2.11 0-2.916z"></path>
</symbol>
<symbol id="icon-world" viewBox="0 0 33 33">
<title>world</title>
<path d="M15.984 0c-8.829 0-15.984 7.156-15.984 15.984s7.156 15.984 15.984 15.984 15.984-7.156 15.984-15.984-7.156-15.984-15.984-15.984zM29.88 15.469h-6.183c-0.057-2.284-0.463-4.466-1.184-6.464 1.392-0.581 2.679-1.353 3.853-2.266 2.086 2.342 3.391 5.383 3.515 8.73zM15.414 29.877c-1.714-1.427-3.152-3.28-4.203-5.433 1.35-0.422 2.78-0.653 4.258-0.7v6.135c-0.019 0-0.036-0.001-0.055-0.002zM16.553 2.091c1.945 1.619 3.532 3.788 4.606 6.317-1.471 0.502-3.033 0.794-4.659 0.846v-7.166c0.020 0.001 0.036 0.002 0.054 0.003zM18.271 2.267c2.846 0.473 5.4 1.803 7.388 3.727-1.080 0.828-2.259 1.529-3.535 2.060-0.938-2.224-2.255-4.191-3.853-5.787zM15.469 2.088v7.166c-1.626-0.053-3.19-0.343-4.659-0.846 1.074-2.53 2.661-4.698 4.606-6.317 0.019-0.001 0.035-0.002 0.054-0.003zM9.844 8.055c-1.274-0.531-2.454-1.232-3.534-2.060 1.987-1.924 4.542-3.254 7.388-3.727-1.598 1.595-2.914 3.562-3.854 5.787zM10.421 9.36c1.59 0.552 3.285 0.873 5.048 0.927v5.182h-6.166c0.056-2.159 0.438-4.223 1.118-6.109zM15.469 16.5v6.213c-1.626 0.049-3.199 0.316-4.681 0.793-0.893-2.126-1.42-4.495-1.485-7.006h6.166zM13.698 29.702c-2.55-0.424-4.866-1.535-6.75-3.147 1.016-0.704 2.114-1.3 3.288-1.753 0.899 1.864 2.076 3.52 3.462 4.901zM16.5 29.88v-6.135c1.477 0.047 2.908 0.278 4.258 0.7-1.053 2.152-2.489 4.005-4.203 5.433-0.018 0-0.036 0.001-0.055 0.002zM21.733 24.802c1.173 0.453 2.27 1.050 3.288 1.753-1.883 1.612-4.199 2.724-6.75 3.147 1.386-1.381 2.562-3.036 3.462-4.901zM21.181 23.506c-1.483-0.477-3.056-0.744-4.681-0.793v-6.213h6.166c-0.065 2.511-0.593 4.88-1.485 7.006zM16.5 15.469v-5.182c1.762-0.054 3.457-0.374 5.048-0.926 0.679 1.886 1.061 3.95 1.118 6.109h-6.166zM5.604 6.739c1.174 0.913 2.461 1.685 3.852 2.266-0.721 1.998-1.127 4.18-1.184 6.464h-6.183c0.124-3.346 1.428-6.388 3.516-8.73zM2.088 16.5h6.183c0.064 2.635 0.615 5.123 1.55 7.36-1.307 0.509-2.525 1.188-3.649 1.991-2.421-2.41-3.95-5.705-4.085-9.351zM25.796 25.85c-1.124-0.802-2.342-1.482-3.65-1.991 0.936-2.237 1.486-4.725 1.551-7.36h6.183c-0.135 3.648-1.664 6.942-4.085 9.351z"></path>
</symbol>
<symbol id="icon-heart" viewBox="0 0 33 33">
<title>heart</title>
<path d="M30.105 5.43c-3.742-3.708-9.727-3.786-13.603-0.297-3.877-3.489-9.86-3.411-13.604 0.297-3.858 3.82-3.858 10.012 0 13.834 1.102 1.092 11.398 11.283 11.398 11.283 1.22 1.209 3.193 1.209 4.412 0 0 0 11.274-11.16 11.398-11.283 3.859-3.822 3.859-10.014-0.001-13.834zM28.636 17.808l-11.398 11.283c-0.405 0.403-1.066 0.403-1.47 0l-11.398-11.283c-3.042-3.011-3.042-7.911 0-10.922 2.933-2.903 7.648-3.005 10.734-0.229l1.398 1.258 1.397-1.258c3.088-2.776 7.802-2.675 10.735 0.229 3.042 3.010 3.042 7.91 0.001 10.922zM9.542 7.735c0.286 0 0.516 0.231 0.516 0.516s-0.231 0.516-0.516 0.516h-0.001c-1.85 0-3.351 1.5-3.351 3.351v0.001c0 0.285-0.231 0.516-0.516 0.516s-0.516-0.231-0.516-0.516v0c0-2.419 1.96-4.38 4.379-4.382 0.002 0 0.002-0.001 0.004-0.001z"></path>
</symbol>
<symbol id="icon-map2" viewBox="0 0 32 32">
<title>map2</title>
<path d="M21 6l-10-4-11 4v24l11-4 10 4 11-4v-24l-11 4zM12 4.554l8 3.2v19.692l-8-3.2v-19.692zM2 7.401l8-2.909v19.744l-8 2.909v-19.744zM30 24.599l-8 2.909v-19.744l8-2.909v19.744z"></path>
</symbol>
</defs>
</svg>
