<!-- Generated by IcoMoon.io -->
<svg version="1.1" xmlns="http://www.w3.org/2000/svg" width="33" height="33" viewBox="0 0 33 33">
<title>compass</title>
<path d="M29.906 19.078c0 7.404-6.002 13.406-13.406 13.406s-13.406-6.002-13.406-13.406c0-6.528 4.666-11.959 10.844-13.156-0.335-0.494-0.531-1.090-0.531-1.734 0-1.709 1.385-3.094 3.094-3.094 1.708 0 3.094 1.385 3.094 3.094 0 0.642-0.196 1.239-0.532 1.734 6.178 1.196 10.845 6.628 10.845 13.156zM16.5 2.578c-0.855 0-1.547 0.693-1.547 1.547s0.692 1.547 1.547 1.547c0.854 0 1.547-0.693 1.547-1.547s-0.693-1.547-1.547-1.547zM17.531 7.786v2.527h-2.063v-2.527c-5.59 0.504-9.998 5.191-10.286 10.842h3.067v1.998h-2.986c0.684 5.225 4.916 9.267 10.205 9.744v-2.526h2.063v2.526c5.267-0.475 9.484-4.55 10.195-9.744h-2.976v-2.063h3.069c-0.256-5.68-4.678-10.27-10.288-10.777zM9.81 25.948l4.040-9.145 9.085-3.98-3.965 9.069-9.161 4.056zM17.861 17.896c-0.805-0.805-2.112-0.805-2.917 0s-0.805 2.111 0 2.916 2.112 0.805 2.917 0c0.805-0.805 0.805-2.11 0-2.916z"></path>
</svg>
