<!-- Generated by IcoMoon.io -->
<svg version="1.1" xmlns="http://www.w3.org/2000/svg" width="33" height="33" viewBox="0 0 33 33">
<title>heart</title>
<path d="M30.105 5.43c-3.742-3.708-9.727-3.786-13.603-0.297-3.877-3.489-9.86-3.411-13.604 0.297-3.858 3.82-3.858 10.012 0 13.834 1.102 1.092 11.398 11.283 11.398 11.283 1.22 1.209 3.193 1.209 4.412 0 0 0 11.274-11.16 11.398-11.283 3.859-3.822 3.859-10.014-0.001-13.834zM28.636 17.808l-11.398 11.283c-0.405 0.403-1.066 0.403-1.47 0l-11.398-11.283c-3.042-3.011-3.042-7.911 0-10.922 2.933-2.903 7.648-3.005 10.734-0.229l1.398 1.258 1.397-1.258c3.088-2.776 7.802-2.675 10.735 0.229 3.042 3.010 3.042 7.91 0.001 10.922zM9.542 7.735c0.286 0 0.516 0.231 0.516 0.516s-0.231 0.516-0.516 0.516h-0.001c-1.85 0-3.351 1.5-3.351 3.351v0.001c0 0.285-0.231 0.516-0.516 0.516s-0.516-0.231-0.516-0.516v0c0-2.419 1.96-4.38 4.379-4.382 0.002 0 0.002-0.001 0.004-0.001z"></path>
</svg>
